<?xml version="1.0" standalone="no"?>
<!DOCTYPE svg PUBLIC "-//W3C//DTD SVG 20010904//EN"
 "http://www.w3.org/TR/2001/REC-SVG-20010904/DTD/svg10.dtd">
<svg version="1.0" xmlns="http://www.w3.org/2000/svg"
 width="240.000000pt" height="240.000000pt" viewBox="0 0 240.000000 240.000000"
 preserveAspectRatio="xMidYMid meet">
<metadata>
Created by potrace 1.11, written by Peter Selinger 2001-2013
</metadata>
<g transform="translate(0.000000,240.000000) scale(0.100000,-0.100000)"
fill="#000000" stroke="none">
<path d="M970 1671 c-19 -9 -41 -22 -48 -28 -7 -7 -18 -13 -24 -13 -6 0 -9 -3
-5 -6 3 -3 -2 -14 -11 -24 -9 -10 -22 -25 -27 -32 -14 -18 -65 -133 -65 -147
0 -6 -4 -12 -10 -12 -5 -1 -19 -3 -30 -4 -11 -1 -27 -3 -37 -4 -9 0 -14 -4
-10 -7 3 -3 2 -17 -3 -30 -8 -19 -6 -24 8 -25 40 -3 46 -5 50 -18 2 -8 1 -11
-4 -8 -5 3 -9 -9 -10 -27 0 -18 -4 -41 -9 -52 -10 -24 -12 -32 -20 -68 -3 -16
-8 -33 -11 -38 -3 -5 -8 -21 -10 -36 -3 -15 -10 -45 -16 -67 -6 -22 -11 -44
-13 -50 -7 -34 -19 -71 -24 -80 -3 -5 -7 -19 -8 -29 -2 -11 -8 -25 -14 -33 -6
-7 -8 -13 -4 -13 5 0 0 -9 -10 -20 -14 -16 -21 -17 -32 -8 -8 6 -12 17 -9 24
3 9 0 11 -11 7 -12 -5 -15 -2 -10 10 3 9 3 16 -1 15 -4 -1 -19 2 -34 6 -49 14
-91 -25 -81 -76 7 -35 48 -62 99 -63 22 -1 46 -5 54 -10 9 -5 11 -4 6 3 -5 8
0 12 13 12 11 0 23 5 26 10 4 6 16 8 28 5 14 -4 18 -3 9 3 -9 6 -6 12 13 22
14 7 25 17 25 22 0 5 5 6 10 3 6 -3 10 -2 10 4 0 5 11 23 25 39 13 16 22 32
18 36 -3 3 -1 6 5 6 7 0 12 7 12 15 0 8 8 15 18 15 13 0 14 2 4 9 -11 7 -11
11 2 23 8 9 12 18 9 22 -3 3 0 12 7 21 7 8 14 25 15 38 4 37 5 38 18 31 9 -6
9 -4 -1 8 -8 10 -9 17 -3 20 9 3 18 32 20 66 1 7 5 11 10 8 5 -4 7 2 4 13 -3
10 0 22 5 25 6 3 8 16 4 28 -3 14 -1 19 6 14 7 -4 10 -2 6 7 -2 7 1 27 7 43 7
16 11 37 10 47 -2 11 5 17 19 17 12 0 18 -4 15 -10 -4 -6 -11 -7 -17 -4 -7 5
-8 2 -4 -5 6 -9 13 -8 27 5 10 9 25 14 33 11 18 -7 25 3 32 38 4 23 -4 30 -30
26 -4 -1 -15 4 -24 11 -9 7 -13 8 -9 2 3 -6 0 -11 -8 -11 -13 0 -13 4 0 24 10
15 12 23 4 23 -8 0 -8 4 1 15 6 8 9 19 5 25 -3 5 2 10 12 11 10 0 13 3 6 6 -9
3 -10 10 -4 21 5 9 9 20 9 25 1 30 16 67 28 67 16 0 46 -54 36 -65 -4 -5 -1
-5 6 -1 6 4 12 3 12 -2 0 -19 39 -19 68 -2 17 10 32 16 35 14 2 -3 1 14 -3 38
-5 24 -6 47 -3 52 4 5 0 6 -7 1 -8 -5 -18 -1 -27 11 -18 25 -114 28 -163 5z"/>
<path d="M1010 1599 c0 -5 5 -7 10 -4 6 3 10 8 10 11 0 2 -4 4 -10 4 -5 0 -10
-5 -10 -11z"/>
<path d="M1999 1549 c-69 -10 -92 -26 -150 -96 -5 -7 -6 -13 -2 -13 4 0 2 -5
-4 -11 -6 -6 -9 -18 -6 -27 5 -11 3 -13 -8 -7 -10 7 -8 1 4 -18 10 -15 16 -31
13 -35 -2 -4 13 -7 34 -7 21 0 38 2 38 5 0 3 0 7 2 10 1 3 3 18 5 35 3 21 2
26 -5 15 -5 -8 -10 -13 -11 -10 0 3 -2 12 -4 20 -3 19 29 24 58 9 14 -8 17 -8
13 0 -4 6 10 3 30 -5 20 -8 39 -13 42 -10 3 3 11 1 18 -4 6 -6 16 -10 20 -9 5
1 20 1 34 0 l25 -2 -25 -13 c-14 -8 -29 -12 -34 -9 -5 4 -6 1 -2 -5 4 -7 3
-12 -3 -12 -5 0 -16 -6 -23 -12 -18 -18 -90 -53 -105 -51 -7 0 -11 -3 -8 -7 2
-4 -17 -22 -43 -40 -43 -29 -108 -102 -112 -125 -1 -5 -6 -18 -11 -27 -12 -22
-2 -45 22 -51 14 -4 23 1 31 18 6 14 15 22 19 19 5 -3 9 1 9 8 0 8 3 9 8 3 4
-6 16 -10 27 -10 11 0 25 -3 30 -6 13 -8 68 -23 78 -21 4 1 7 -3 7 -9 0 -8 4
-8 13 -1 7 6 18 7 26 3 8 -5 27 -5 44 0 16 5 34 6 38 3 5 -3 9 -1 9 4 0 5 13
15 30 22 16 7 28 17 27 24 -1 6 4 10 11 8 8 -1 11 1 8 6 -3 5 4 19 15 30 23
25 28 84 9 107 -16 20 -44 19 -65 -1 -14 -15 -14 -19 -1 -39 26 -39 -3 -49
-89 -31 -11 3 -22 5 -25 6 -11 4 -26 7 -48 8 -16 2 -21 6 -16 15 6 8 3 8 -9
-1 -21 -18 -43 -6 -26 14 6 8 15 14 20 14 4 0 35 16 69 36 33 19 65 32 70 29
6 -4 9 -3 8 2 -2 4 0 9 5 11 4 1 15 10 25 20 38 36 72 62 82 62 6 0 10 7 10
15 0 8 9 19 20 25 11 6 18 15 15 21 -4 5 -1 9 5 9 6 0 8 5 5 10 -3 6 -2 10 4
10 6 0 8 7 5 15 -4 8 -1 15 5 15 9 0 9 5 1 20 -6 11 -21 20 -34 20 -15 0 -26
-7 -29 -20 -3 -12 -14 -20 -26 -20 -19 0 -150 33 -168 43 -5 2 -29 0 -54 -4z"/>
<path d="M1120 1227 l0 -215 -61 -4 c-66 -5 -89 -21 -89 -65 0 -56 97 -82 147
-39 l28 24 2 169 c1 92 2 178 2 191 1 17 6 22 19 18 9 -2 36 -8 60 -11 l42 -7
0 60 0 59 -61 12 c-34 7 -67 15 -75 18 -12 4 -14 -30 -14 -210z"/>
<path d="M340 1418 c0 -5 -10 -8 -21 -8 -32 0 -94 -38 -112 -70 -17 -28 -29
-132 -15 -124 5 3 8 2 8 -3 0 -16 66 -79 78 -75 16 5 16 -15 0 -22 -7 -3 -3
-3 10 0 14 3 22 1 22 -7 0 -7 3 -10 6 -6 8 8 44 -25 38 -35 -3 -5 0 -7 8 -6
16 4 23 -50 9 -71 -5 -7 -20 -15 -34 -16 -14 -2 -30 -6 -36 -9 -13 -9 -71 52
-71 74 0 27 -38 69 -63 68 -63 -1 -84 -23 -78 -83 1 -11 3 -28 4 -37 1 -9 5
-14 9 -12 5 3 11 -2 14 -10 3 -9 12 -16 20 -16 8 0 14 -4 14 -10 0 -5 9 -10
21 -10 11 0 18 -3 16 -8 -5 -8 23 -10 118 -11 69 -1 84 1 104 13 10 7 12 5 6
-5 -5 -8 1 -5 13 5 12 11 22 16 22 12 0 -4 6 -2 13 4 51 43 67 61 65 72 -2 7
3 12 10 10 10 -2 10 2 2 18 -8 14 -8 26 1 41 8 16 8 20 -1 14 -8 -5 -11 -1 -8
11 3 18 -54 82 -102 114 -100 66 -111 81 -94 124 5 14 9 14 22 4 10 -8 13 -8
9 -2 -4 7 0 14 8 18 8 3 15 0 15 -7 0 -8 4 -6 10 3 8 12 10 12 10 1 0 -8 3
-12 6 -8 4 3 12 1 18 -6 14 -15 40 -69 38 -79 -1 -5 2 -8 8 -8 5 0 19 -10 31
-22 12 -13 18 -17 14 -9 -6 10 -4 13 7 9 18 -7 61 20 67 42 5 23 8 70 3 66 -2
-2 -14 6 -27 18 -44 40 -47 41 -105 53 -41 8 -130 9 -130 1z"/>
<path d="M1471 1419 c-62 -12 -116 -50 -137 -99 -10 -22 -23 -40 -28 -40 -6 0
-5 -4 3 -9 13 -8 13 -12 1 -28 -8 -10 -11 -15 -6 -11 4 4 18 -2 29 -13 12 -11
28 -17 37 -13 8 3 20 7 25 7 14 0 11 47 -3 56 -6 4 -7 12 -3 20 11 18 15 18
36 1 11 -9 16 -10 11 -2 -4 6 -2 12 3 12 6 0 11 -6 11 -12 0 -9 4 -8 10 2 8
12 10 12 10 -5 0 -13 3 -16 8 -8 5 8 13 9 22 3 8 -6 25 -10 38 -10 16 0 21 -4
16 -12 -5 -9 -2 -9 9 1 9 7 17 9 17 3 0 -5 10 -8 23 -5 17 4 16 0 -10 -17 -18
-12 -34 -20 -36 -18 -2 2 -11 -5 -21 -14 -10 -10 -24 -18 -32 -18 -8 0 -14 -4
-14 -10 0 -5 -5 -10 -11 -10 -6 0 -31 -14 -56 -32 -26 -17 -52 -31 -59 -31 -7
0 -12 -3 -11 -7 1 -4 -16 -25 -39 -47 -22 -21 -38 -45 -36 -51 2 -7 -1 -12 -6
-12 -11 0 -22 -48 -15 -67 3 -7 18 -13 35 -13 17 0 27 4 23 10 -3 6 -1 10 5
10 6 0 8 5 4 12 -5 8 -2 9 9 5 10 -4 17 -2 17 5 0 7 5 6 15 -2 9 -7 25 -14 38
-15 12 -1 28 -3 35 -4 7 0 11 -4 9 -8 -8 -12 140 -15 162 -4 14 8 21 8 24 -2
3 -7 6 -4 6 7 1 12 6 16 16 12 8 -3 14 -2 13 2 -4 12 34 62 43 56 5 -3 6 2 3
10 -3 9 -2 16 3 16 10 0 13 16 13 59 0 47 -36 65 -74 36 -17 -13 -17 -16 -4
-37 20 -32 13 -51 -14 -37 -14 7 -18 8 -14 0 7 -11 -6 -10 -118 13 -38 8 -76
12 -85 9 -11 -4 -9 0 4 10 11 8 24 12 30 9 16 -10 36 -11 29 -1 -3 5 -10 7
-15 4 -5 -4 -9 -2 -9 4 0 16 88 61 94 48 2 -7 5 -3 5 7 1 11 4 17 7 13 3 -3
15 4 26 15 11 11 26 17 34 14 8 -3 12 -2 9 4 -10 16 30 31 45 17 12 -10 12 -9
2 4 -10 14 -6 21 25 45 21 16 41 28 45 27 4 -2 5 3 2 11 -3 7 2 20 10 29 8 8
12 17 9 21 -4 3 -2 6 4 6 5 0 10 16 11 35 1 32 -1 35 -27 35 -21 0 -30 -6 -34
-21 -5 -19 -11 -21 -53 -15 -26 3 -50 9 -53 13 -3 4 -13 9 -21 10 -21 2 -72
13 -79 17 -3 1 -26 -1 -50 -5z"/>
</g>
</svg>
